<?xml version="1.0" encoding="utf-8"?>
<!-- Generator: Adobe Illustrator 15.1.0, SVG Export Plug-In . SVG Version: 6.00 Build 0)  -->
<!DOCTYPE svg PUBLIC "-//W3C//DTD SVG 1.1//EN" "http://www.w3.org/Graphics/SVG/1.1/DTD/svg11.dtd">
<svg version="1.1" id="Layer_1" xmlns="http://www.w3.org/2000/svg" xmlns:xlink="http://www.w3.org/1999/xlink" x="0px" y="0px"
	 width="825.004px" height="205.568px" viewBox="0 0 825.004 205.568" enable-background="new 0 0 825.004 205.568"
	 xml:space="preserve">
<path fill="none" stroke="#FFFFFF" stroke-width="10" stroke-miterlimit="10" d="M155.813,12.048
	C92.18-20.166,93.609,83.094,110.648,114.433c5.841,10.747,31.105,24.483,42.961,26.01c42.274,5.447,40.904-63.477-0.856-56.824
	C179.289,68.109,187.339,28.007,155.813,12.048C136.953,2.5,174.674,21.596,155.813,12.048z"/>
<linearGradient id="SVGID_1_" gradientUnits="userSpaceOnUse" x1="-2.8511" y1="148.5269" x2="99.7809" y2="99.7612">
	<stop  offset="0" style="stop-color:#FFFFFF"/>
	<stop  offset="1" style="stop-color:#FFFFFF;stop-opacity:0.3"/>
</linearGradient>
<path fill="url(#SVGID_1_)" d="M0.832,93.272c9.719-70.661,93.817-10.719,109.893,21.122c5.515,10.918,2.43,39.509-3.058,50.127
	c-19.578,37.863-75.474-2.49-46.24-33.04C33.574,144.477-3.985,128.276,0.832,93.272C3.712,72.33-2.05,114.215,0.832,93.272z"/>
<path fill="#FFFFFF" d="M110.513,107.035c-6.499-12.4-13.532-22.205-17.835-25.324c1.397-1.728,1.722-4.186,0.625-6.279
	c-0.979-1.867-2.84-2.966-4.804-3.064c-10.44-19.571-12.48-34.786-5.927-44.21c0.503,0.204,1.086,0.201,1.604-0.071
	c0.936-0.491,1.297-1.647,0.807-2.583c-0.491-0.937-1.647-1.297-2.584-0.807c-0.936,0.491-1.297,1.647-0.807,2.584
	c0.052,0.099,0.115,0.188,0.181,0.274c-6.761,9.68-4.821,25.117,5.624,44.865c-0.628,0.091-1.252,0.281-1.846,0.593
	c-0.653,0.342-1.208,0.795-1.664,1.32C73.582,54.457,61.975,44.076,50.152,44.127c-0.033-0.103-0.071-0.206-0.123-0.305
	c-0.49-0.937-1.647-1.298-2.584-0.807c-0.936,0.491-1.297,1.647-0.806,2.583c0.491,0.937,1.647,1.298,2.583,0.807
	c0.519-0.271,0.852-0.749,0.971-1.278c11.498-0.024,22.874,10.332,33.041,30.125c-0.937,1.643-1.047,3.711-0.104,5.511
	c1.097,2.093,3.303,3.225,5.518,3.059c0.116,5.313,4.177,16.676,10.676,29.076c8.438,16.102,22.023,35.139,25.112,33.52
	C127.527,144.798,118.952,123.137,110.513,107.035z"/>
<ellipse transform="matrix(0.2318 0.9728 -0.9728 0.2318 492.3185 -153.5073)" fill="none" cx="343.35" cy="234.95" rx="150.5" ry="461.968"/>
<text transform="matrix(0.9544 -0.2985 0.2985 0.9544 205.2856 117.2646)"><tspan x="0" y="0" fill="#FFFFFF" font-family="'Segoe UI', Frutiger, 'Frutiger Linotype', 'Dejavu Sans', 'Helvetica Neue', Arial, sans-serif;" font-size="60">r</tspan><tspan x="23.705" y="0.046" fill="#FFFFFF" font-family="'Segoe UI', Frutiger, 'Frutiger Linotype', 'Dejavu Sans', 'Helvetica Neue', Arial, sans-serif;" font-size="60" rotate="0.874">i</tspan><tspan x="41.043" y="0.245" fill="#FFFFFF" font-family="'Segoe UI', Frutiger, 'Frutiger Linotype', 'Dejavu Sans', 'Helvetica Neue', Arial, sans-serif;" font-size="60" rotate="1.995">n</tspan><tspan x="77.703" y="1.551" fill="#FFFFFF" font-family="'Segoe UI', Frutiger, 'Frutiger Linotype', 'Dejavu Sans', 'Helvetica Neue', Arial, sans-serif;" font-size="60" rotate="3.5">g</tspan><tspan x="115.741" y="3.999" fill="#FFFFFF" font-family="'Segoe UI', Frutiger, 'Frutiger Linotype', 'Dejavu Sans', 'Helvetica Neue', Arial, sans-serif;" font-size="60" rotate="4.639"> </tspan><tspan x="134.859" y="5.311" fill="#FFFFFF" font-family="'Segoe UI', Frutiger, 'Frutiger Linotype', 'Dejavu Sans', 'Helvetica Neue', Arial, sans-serif;" font-size="60" rotate="6.215">W</tspan><tspan x="193.183" y="11.89" fill="#FFFFFF" font-family="'Segoe UI', Frutiger, 'Frutiger Linotype', 'Dejavu Sans', 'Helvetica Neue', Arial, sans-serif;" font-size="60" rotate="8.254">o</tspan><tspan x="230.591" y="17.202" fill="#FFFFFF" font-family="'Segoe UI', Frutiger, 'Frutiger Linotype', 'Dejavu Sans', 'Helvetica Neue', Arial, sans-serif;" font-size="60" rotate="10.339">m</tspan><tspan x="283.961" y="27.171" fill="#FFFFFF" font-family="'Segoe UI', Frutiger, 'Frutiger Linotype', 'Dejavu Sans', 'Helvetica Neue', Arial, sans-serif;" font-size="60" rotate="12.532">e</tspan><tspan x="317.175" y="34.566" fill="#FFFFFF" font-family="'Segoe UI', Frutiger, 'Frutiger Linotype', 'Dejavu Sans', 'Helvetica Neue', Arial, sans-serif;" font-size="60" rotate="14.488">n</tspan><tspan x="352.623" y="43.895" fill="#FFFFFF" font-family="'Segoe UI', Frutiger, 'Frutiger Linotype', 'Dejavu Sans', 'Helvetica Neue', Arial, sans-serif;" font-size="60" rotate="16.212"> </tspan><tspan x="370.993" y="49.147" fill="#FFFFFF" font-family="'Segoe UI', Frutiger, 'Frutiger Linotype', 'Dejavu Sans', 'Helvetica Neue', Arial, sans-serif;" font-size="60" rotate="18.058">T</tspan><tspan x="403.257" y="59.649" fill="#FFFFFF" font-family="'Segoe UI', Frutiger, 'Frutiger Linotype', 'Dejavu Sans', 'Helvetica Neue', Arial, sans-serif;" font-size="60" rotate="20.979">o</tspan><tspan x="438.236" y="73.08" fill="#FFFFFF" font-family="'Segoe UI', Frutiger, 'Frutiger Linotype', 'Dejavu Sans', 'Helvetica Neue', Arial, sans-serif;" font-size="60" rotate="24.881">g</tspan><tspan x="472.185" y="88.924" fill="#FFFFFF" font-family="'Segoe UI', Frutiger, 'Frutiger Linotype', 'Dejavu Sans', 'Helvetica Neue', Arial, sans-serif;" font-size="60" rotate="29.938">e</tspan><tspan x="500.958" y="105.829" fill="#FFFFFF" font-family="'Segoe UI', Frutiger, 'Frutiger Linotype', 'Dejavu Sans', 'Helvetica Neue', Arial, sans-serif;" font-size="60" rotate="35.618">t</tspan><tspan x="519.067" y="118.077" fill="#FFFFFF" font-family="'Segoe UI', Frutiger, 'Frutiger Linotype', 'Dejavu Sans', 'Helvetica Neue', Arial, sans-serif;" font-size="60" rotate="44.511">h</tspan><tspan x="543.599" y="141.678" fill="#FFFFFF" font-family="'Segoe UI', Frutiger, 'Frutiger Linotype', 'Dejavu Sans', 'Helvetica Neue', Arial, sans-serif;" font-size="60" rotate="62.741">e</tspan><tspan x="556.982" y="168.879" fill="#FFFFFF" font-family="'Segoe UI', Frutiger, 'Frutiger Linotype', 'Dejavu Sans', 'Helvetica Neue', Arial, sans-serif;" font-size="60" rotate="86.899">r</tspan></text>
<ellipse transform="matrix(0.2318 0.9728 -0.9728 0.2318 567.4416 -116.4906)" fill="none" cx="357.475" cy="301.022" rx="150.5" ry="461.968"/>
<text transform="matrix(0.9348 -0.3553 0.3553 0.9348 137.7378 212.5864)" opacity="0.8"><tspan x="0" y="0" fill="#FFFFFF" font-family="'Segoe UI', Frutiger, 'Frutiger Linotype', 'Dejavu Sans', 'Helvetica Neue', Arial, sans-serif;" font-size="72">C</tspan><tspan x="47.707" y="0.095" fill="#FFFFFF" font-family="'Segoe UI', Frutiger, 'Frutiger Linotype', 'Dejavu Sans', 'Helvetica Neue', Arial, sans-serif;" font-size="72" rotate="2.192">o</tspan><tspan x="92.959" y="1.7" fill="#FFFFFF" font-family="'Segoe UI', Frutiger, 'Frutiger Linotype', 'Dejavu Sans', 'Helvetica Neue', Arial, sans-serif;" font-size="72" rotate="4.578">m</tspan><tspan x="157.805" y="7.035" fill="#FFFFFF" font-family="'Segoe UI', Frutiger, 'Frutiger Linotype', 'Dejavu Sans', 'Helvetica Neue', Arial, sans-serif;" font-size="72" rotate="7.105">m</tspan><tspan x="222.405" y="15.413" fill="#FFFFFF" font-family="'Segoe UI', Frutiger, 'Frutiger Linotype', 'Dejavu Sans', 'Helvetica Neue', Arial, sans-serif;" font-size="72" rotate="9.401">u</tspan><tspan x="265.77" y="22.64" fill="#FFFFFF" font-family="'Segoe UI', Frutiger, 'Frutiger Linotype', 'Dejavu Sans', 'Helvetica Neue', Arial, sans-serif;" font-size="72" rotate="11.241">n</tspan><tspan x="308.93" y="31.403" fill="#FFFFFF" font-family="'Segoe UI', Frutiger, 'Frutiger Linotype', 'Dejavu Sans', 'Helvetica Neue', Arial, sans-serif;" font-size="72" rotate="12.665">i</tspan><tspan x="329.231" y="35.963" fill="#FFFFFF" font-family="'Segoe UI', Frutiger, 'Frutiger Linotype', 'Dejavu Sans', 'Helvetica Neue', Arial, sans-serif;" font-size="72" rotate="13.785">t</tspan><tspan x="356.102" y="42.521" fill="#FFFFFF" font-family="'Segoe UI', Frutiger, 'Frutiger Linotype', 'Dejavu Sans', 'Helvetica Neue', Arial, sans-serif;" font-size="72" rotate="15.397">y</tspan><tspan x="392.803" y="52.78" fill="#FFFFFF" font-family="'Segoe UI', Frutiger, 'Frutiger Linotype', 'Dejavu Sans', 'Helvetica Neue', Arial, sans-serif;" font-size="72" rotate="17.021"> </tspan><tspan x="414.71" y="59.231" fill="#FFFFFF" font-family="'Segoe UI', Frutiger, 'Frutiger Linotype', 'Dejavu Sans', 'Helvetica Neue', Arial, sans-serif;" font-size="72" rotate="19.257">G</tspan><tspan x="464.062" y="76.832" fill="#FFFFFF" font-family="'Segoe UI', Frutiger, 'Frutiger Linotype', 'Dejavu Sans', 'Helvetica Neue', Arial, sans-serif;" font-size="72" rotate="22.061">r</tspan><tspan x="490.068" y="87.167" fill="#FFFFFF" font-family="'Segoe UI', Frutiger, 'Frutiger Linotype', 'Dejavu Sans', 'Helvetica Neue', Arial, sans-serif;" font-size="72" rotate="25.187">o</tspan><tspan x="530.56" y="106.243" fill="#FFFFFF" font-family="'Segoe UI', Frutiger, 'Frutiger Linotype', 'Dejavu Sans', 'Helvetica Neue', Arial, sans-serif;" font-size="72" rotate="30.207">u</tspan><tspan x="567.613" y="127.624" fill="#FFFFFF" font-family="'Segoe UI', Frutiger, 'Frutiger Linotype', 'Dejavu Sans', 'Helvetica Neue', Arial, sans-serif;" font-size="72" rotate="37.851">p</tspan></text>
</svg>
